<svg xmlns="http://www.w3.org/2000/svg" viewBox="-3.2 -6.4 70.4 86.4">
  <rect x="-3.2" y="-6.4" width="70.4" height="86.4" fill="#000"/>
  <path fill="#fff" d="M39.968,5.251l-14,54C25.852,59.701,25.445,60,25.001,60c-0.083,0-0.168-0.01-0.252-0.032   c-0.534-0.139-0.855-0.685-0.717-1.219l14-54c0.138-0.535,0.685-0.856,1.219-0.717C39.785,4.17,40.106,4.716,39.968,5.251z M10,21   v-8c0-3.794,1.832-7,4-7h5c0.553,0,1-0.448,1-1s-0.447-1-1-1h-5c-3.364,0-6,3.953-6,9v8c0,4.841-1.058,8.287-1.601,8.7L4.4,31.2   c-0.04,0.03-0.062,0.073-0.096,0.107C4.271,31.341,4.229,31.361,4.2,31.4c-0.012,0.016-0.014,0.035-0.024,0.051   c-0.04,0.06-0.064,0.124-0.09,0.189c-0.022,0.057-0.048,0.111-0.06,0.169c-0.012,0.063-0.01,0.125-0.01,0.19   s-0.002,0.126,0.01,0.19c0.012,0.059,0.037,0.112,0.06,0.169c0.025,0.066,0.05,0.129,0.09,0.189   C4.187,32.565,4.188,32.584,4.2,32.6c0.022,0.03,0.057,0.041,0.081,0.067C4.322,32.711,4.351,32.763,4.4,32.8l1.999,1.5   C6.942,34.714,8,38.159,8,43v8c0,5.047,2.636,9,6,9h5c0.553,0,1-0.447,1-1s-0.447-1-1-1h-5c-2.168,0-4-3.206-4-7v-8   c0-3.416-0.639-8.979-2.399-10.3L6.667,32l0.934-0.7C9.361,29.979,10,24.417,10,21z M59.974,32.19   c0.012-0.063,0.01-0.125,0.01-0.19s0.002-0.126-0.01-0.19c-0.012-0.059-0.037-0.112-0.06-0.169c-0.025-0.066-0.05-0.129-0.09-0.189   c-0.011-0.016-0.013-0.035-0.024-0.051c-0.029-0.039-0.071-0.06-0.104-0.094c-0.034-0.034-0.056-0.077-0.096-0.107l-1.999-1.5   C57.058,29.287,56,25.841,56,21v-8c0-5.047-2.636-9-6-9h-5c-0.553,0-1,0.448-1,1s0.447,1,1,1h5c2.168,0,4,3.206,4,7v8   c0,3.417,0.639,8.979,2.399,10.3l0.934,0.7l-0.934,0.7C54.639,34.021,54,39.584,54,43v8c0,3.794-1.832,7-4,7h-5   c-0.553,0-1,0.447-1,1s0.447,1,1,1h5c3.364,0,6-3.953,6-9v-8c0-4.841,1.058-8.286,1.601-8.7l1.999-1.5   c0.05-0.037,0.078-0.089,0.119-0.133c0.024-0.026,0.059-0.038,0.081-0.067c0.012-0.016,0.014-0.035,0.024-0.051   c0.04-0.06,0.064-0.124,0.09-0.189C59.937,32.302,59.962,32.249,59.974,32.19z"/>
</svg>
