<svg xmlns="http://www.w3.org/2000/svg" viewBox="0 0 100 100">
 <path d="m18.859 75.48h5.6602v-5.6602h-16.988v11.32h5.6602v-5.6602z"/>
 <path d="m13.191 24.52v-5.6602h-5.6602v11.32h16.988v-5.6602z"/>
 <path d="m13.191 81.141h5.6602v5.6602h-5.6602z"/>
 <path d="m58.488 86.809v5.6602h11.332v-5.6602z"/>
 <path d="m81.141 69.82v5.6602h5.668v-11.32h-5.668z"/>
 <path d="m86.809 35.84v28.32h5.6602v-28.32z"/>
 <path d="m81.141 35.84h5.668v-11.32h-5.668z"/>
 <path d="m24.52 86.809h-5.6602v5.6602h11.32v-5.6602z"/>
 <path d="m47.172 92.469h-16.992v5.6602h28.309v-5.6602z"/>
 <path d="m69.82 81.141h5.6602v5.6602h-5.6602z"/>
 <path d="m75.48 75.48h5.6602v5.6602h-5.6602z"/>
 <path d="m75.48 18.859h5.6602v5.6602h-5.6602z"/>
 <path d="m69.82 13.191h5.6602v5.6602h-5.6602z"/>
 <path d="m41.512 7.5312h16.977v-5.6602h-28.309v5.6602z"/>
 <path d="m64.16 13.191h5.6602v-5.6602h-11.332v5.6602z"/>
 <path d="m13.191 13.191h5.6602v5.6602h-5.6602z"/>
 <path d="m30.18 13.191v-5.6602h-11.32v5.6602z"/>
 <path d="m52.828 75.48v-5.6602h-11.316v5.6602z"/>
 <path d="m47.172 24.52h-5.6602v5.6602h11.316v-5.6602z"/>
 <path d="m58.488 64.16v-5.6719h-5.6602v11.332h5.6602z"/>
 <path d="m58.488 30.18h-5.6602v11.332h5.6602z"/>
 <path d="m64.16 52.828v-11.316h-5.6719v16.977h5.6719z"/>
 <path d="m30.18 81.141h11.332v-5.6602h-16.992v5.6602z"/>
 <path d="m35.84 18.859h-11.32v5.6602h16.992v-5.6602z"/>
</svg>