<svg width="16" height="16" viewBox="0 0 16 16" fill="none" xmlns="http://www.w3.org/2000/svg">
<rect width="16" height="16" fill="black"/>
<path d="M8.51327 3.21481V6.91852C8.35926 6.90821 8.51327 6.91852 7.59292 6.91852C7.59292 6.41481 7.60645 4.80944 7.59292 3.54074L6.60177 2.71111H3.84071L2.88496 3.54074V8.42963L3.84071 9.14074H6.0354L6.28319 9.43704L5.71681 9.91111H3.45133L2 8.75556V3.21481L3.45133 2H7.09735L8.51327 3.21481Z" fill="white"/>
<path d="M8.15929 8.84444L12.9381 4.1037H14L8.69027 9.43704L10.9558 11.7481H9.89381L8.12389 9.97037L5.32743 12.7556H4.23009L7.55752 9.37778L5.82301 7.57037H6.84956L8.15929 8.84444Z" fill="white"/>
<path d="M13.8938 6.65185H13.0796V12.6963L12.4071 13.2296H10.885L10.4602 12.7556H9.61062V13.0815L10.4602 14H12.7965L13.8938 12.9926V6.65185Z" fill="white"/>
<path d="M8.51327 3.21481V6.91852C8.35926 6.90821 8.51327 6.91852 7.59292 6.91852C7.59292 6.41481 7.60645 4.80944 7.59292 3.54074L6.60177 2.71111H3.84071L2.88496 3.54074V8.42963L3.84071 9.14074H6.0354L6.28319 9.43704L5.71681 9.91111H3.45133L2 8.75556V3.21481L3.45133 2H7.09735L8.51327 3.21481Z" stroke="white" stroke-width="0.0550265" stroke-linejoin="bevel"/>
<path d="M8.15929 8.84444L12.9381 4.1037H14L8.69027 9.43704L10.9558 11.7481H9.89381L8.12389 9.97037L5.32743 12.7556H4.23009L7.55752 9.37778L5.82301 7.57037H6.84956L8.15929 8.84444Z" stroke="white" stroke-width="0.0550265" stroke-linejoin="bevel"/>
<path d="M13.8938 6.65185H13.0796V12.6963L12.4071 13.2296H10.885L10.4602 12.7556H9.61062V13.0815L10.4602 14H12.7965L13.8938 12.9926V6.65185Z" stroke="white" stroke-width="0.0550265" stroke-linejoin="bevel"/>
</svg>
