<svg width="300" height="300" viewBox="0 0 300 300" fill="none" xmlns="http://www.w3.org/2000/svg">
<rect width="300" height="300" fill="black"/>
<path d="M184.737 33.4556L123.703 268.875C123.197 270.837 121.423 272.14 119.487 272.14C119.125 272.14 118.755 272.097 118.388 272.001C116.06 271.395 114.661 269.014 115.263 266.686L176.297 31.2671C176.899 28.9347 179.284 27.5353 181.612 28.1413C183.94 28.7429 185.339 31.1233 184.737 33.4556ZM54.0885 102.115V67.2383C54.0885 50.6979 62.0753 36.721 71.5269 36.721H93.325C95.7359 36.721 97.6846 34.7679 97.6846 32.3614C97.6846 29.9549 95.7359 28.0018 93.325 28.0018H71.5269C56.8612 28.0018 45.3692 45.2353 45.3692 67.2383V102.115C45.3692 123.22 40.7568 138.243 38.3895 140.044L29.6746 146.583C29.5003 146.714 29.4043 146.902 29.2561 147.05C29.1122 147.198 28.9291 147.285 28.8027 147.455C28.7504 147.525 28.7417 147.608 28.6981 147.678C28.5237 147.939 28.4191 148.218 28.3057 148.502C28.2098 148.75 28.0965 148.985 28.0441 149.238C27.9918 149.513 28.0005 149.783 28.0005 150.067C28.0005 150.35 27.9918 150.616 28.0441 150.895C28.0965 151.152 28.2054 151.383 28.3057 151.632C28.4147 151.919 28.5237 152.194 28.6981 152.456C28.746 152.534 28.7504 152.617 28.8027 152.687C28.8986 152.818 29.0512 152.866 29.1558 152.979C29.3346 153.171 29.461 153.397 29.6746 153.559L38.3895 160.098C40.7568 161.903 45.3692 176.922 45.3692 198.027V232.904C45.3692 254.907 56.8612 272.14 71.5269 272.14H93.325C95.7359 272.14 97.6846 270.191 97.6846 267.781C97.6846 265.37 95.7359 263.421 93.325 263.421H71.5269C62.0753 263.421 54.0885 249.444 54.0885 232.904V198.027C54.0885 183.134 51.3027 158.882 43.6298 153.123L39.5579 150.071L43.6298 147.019C51.3027 141.26 54.0885 117.012 54.0885 102.115ZM271.956 150.899C272.008 150.625 271.999 150.354 271.999 150.071C271.999 149.788 272.008 149.522 271.956 149.243C271.904 148.985 271.795 148.754 271.694 148.506C271.585 148.218 271.476 147.943 271.302 147.682C271.254 147.612 271.245 147.529 271.197 147.46C271.071 147.29 270.888 147.198 270.744 147.05C270.596 146.902 270.5 146.714 270.325 146.583L261.611 140.044C259.243 138.243 254.631 123.22 254.631 102.115V67.2383C254.631 45.2353 243.139 28.0018 228.473 28.0018H206.675C204.264 28.0018 202.315 29.9549 202.315 32.3614C202.315 34.7679 204.264 36.721 206.675 36.721H228.473C237.925 36.721 245.912 50.6979 245.912 67.2383V102.115C245.912 117.012 248.697 141.26 256.37 147.019L260.442 150.071L256.37 153.123C248.697 158.882 245.912 183.134 245.912 198.027V232.904C245.912 249.444 237.925 263.421 228.473 263.421H206.675C204.264 263.421 202.315 265.37 202.315 267.781C202.315 270.191 204.264 272.14 206.675 272.14H228.473C243.139 272.14 254.631 254.907 254.631 232.904V198.027C254.631 176.922 259.243 161.903 261.611 160.098L270.325 153.559C270.543 153.397 270.665 153.171 270.844 152.979C270.949 152.866 271.101 152.813 271.197 152.687C271.25 152.617 271.258 152.534 271.302 152.464C271.476 152.203 271.581 151.924 271.694 151.64C271.795 151.388 271.904 151.157 271.956 150.899Z" fill="white"/>
</svg>
