<svg width="16" height="16" viewBox="0 0 16 16" fill="none" xmlns="http://www.w3.org/2000/svg">
<path d="M0 0H16V16H0V0Z" fill="black"/>
<path d="M8.48 13.928C8.224 13.928 7.968 13.9067 7.712 13.864C7.456 13.8213 7.21067 13.7413 6.976 13.624C6.752 13.5067 6.54934 13.3573 6.368 13.176C6.18667 12.9947 6.032 12.792 5.904 12.568C5.78667 12.3333 5.696 12.0933 5.632 11.848C5.57867 11.592 5.552 11.3307 5.552 11.064V10.984H6.528V11.048C6.528 11.3147 6.57067 11.576 6.656 11.832C6.74134 12.088 6.87467 12.312 7.056 12.504C7.23734 12.696 7.456 12.8347 7.712 12.92C7.968 13.0053 8.224 13.048 8.48 13.048C8.672 13.048 8.864 13.0267 9.056 12.984C9.248 12.9307 9.424 12.8507 9.584 12.744C9.744 12.6267 9.87734 12.488 9.984 12.328C10.1013 12.168 10.192 11.9973 10.256 11.816C10.3307 11.6347 10.3787 11.448 10.4 11.256C10.4213 11.064 10.432 10.872 10.432 10.68V2.91999H8.128V2.03999H11.408V10.68C11.408 10.9573 11.3867 11.2347 11.344 11.512C11.312 11.7787 11.2373 12.04 11.12 12.296C11.0133 12.552 10.8693 12.792 10.688 13.016C10.5173 13.2293 10.3093 13.4053 10.064 13.544C9.82934 13.6827 9.57334 13.7787 9.296 13.832C9.02934 13.896 8.75734 13.928 8.48 13.928Z" fill="white"/>
<path d="M3.15199 13.8L5.83999 2.03999H6.95999L9.64799 13.8H8.63999L7.91999 10.52H4.87999L4.15999 13.8H3.15199ZM7.72799 9.63999L6.91199 5.95999C6.82666 5.55465 6.74133 5.15465 6.65599 4.75999C6.57066 4.35465 6.48533 3.94932 6.39999 3.54399C6.31466 3.94932 6.22933 4.35465 6.14399 4.75999C6.05866 5.15465 5.97333 5.55465 5.88799 5.95999L5.07199 9.63999H7.72799Z" fill="white"/>
</svg>
