<svg xmlns="http://www.w3.org/2000/svg" viewBox="0 0 100 100">
 <path d="m47.469 32.309h15.172v-5.0586h-25.281v5.0586z"/>
 <path d="m32.309 32.309h5.0586v5.0586h-5.0586z"/>
 <path d="m62.641 32.309h5.0586v5.0586h-5.0586z"/>
 <path d="m52.531 17.141v-15.16h-5.0625v20.219h5.0625z"/>
 <path d="m72.75 22.199h5.0586v5.0586h-5.0586z"/>
 <path d="m77.801 17.141h5.0586v5.0586h-5.0586z"/>
 <path d="m82.859 12.09h5.0586v5.0586h-5.0586z"/>
 <path d="m12.09 82.859h5.0586v5.0586h-5.0586z"/>
 <path d="m17.141 77.801h5.0586v5.0586h-5.0586z"/>
 <path d="m22.199 72.75h5.0586v5.0586h-5.0586z"/>
 <path d="m22.199 22.199h5.0586v5.0586h-5.0586z"/>
 <path d="m17.141 17.141h5.0586v5.0586h-5.0586z"/>
 <path d="m12.09 12.09h5.0586v5.0586h-5.0586z"/>
 <path d="m82.859 82.859h5.0586v5.0586h-5.0586z"/>
 <path d="m77.801 77.801h5.0586v5.0586h-5.0586z"/>
 <path d="m72.75 72.75h5.0586v5.0586h-5.0586z"/>
 <path d="m47.469 82.859v15.16h5.0625v-20.219h-5.0625z"/>
 <path d="m92.969 47.469h-15.168v5.0625h20.219v-5.0625z"/>
 <path d="m17.141 52.531h5.0586v-5.0625h-20.219v5.0625z"/>
 <path d="m52.531 67.691h-15.172v5.0586h25.281v-5.0586z"/>
 <path d="m62.641 62.641h5.0586v5.0586h-5.0586z"/>
 <path d="m32.309 62.641h5.0586v5.0586h-5.0586z"/>
 <path d="m32.309 52.531v-15.172h-5.0586v25.281h5.0586z"/>
 <path d="m72.75 57.578v-20.219h-5.0586v25.281h5.0586z"/>
</svg>